<svg id="Layer_5" enable-background="new 0 0 64 64" height="512" viewBox="0 0 64 64" width="512" xmlns="http://www.w3.org/2000/svg"><g><g><path d="m36 33c.49 0 .94-.18 1.29-.48l3.26 1.3c.3.12.61.18.93.18.69 0 1.3-.27 1.76-.72 4.41 7.1 6.76 15.31 6.76 23.72v1s-6 4-18 4-18-4-18-4v-1c0-9.74 3.16-19.21 9-27 0 0 2.28.91 5 1.5.01 1.38 1.14 2.5 2.52 2.5.32 0 .63-.06.93-.18l3.26-1.3c.35.3.8.48 1.29.48z" fill="#b4dd7f"/><path d="m49.88 9.9c-.52-2.31-1.8-4.28-3.55-5.68s-3.96-2.22-6.33-2.22h-1v2 1c0 1.94-.78 3.68-2.05 4.95s-3.01 2.05-4.95 2.05c-3.87 0-7-3.13-7-7v-1-2h-1c-4.74 0-8.84 3.28-9.88 7.9-.6 2.71-1.12 5.27-1.12 6.1 0 2 1 4 1 4l7.91 2.37.6 4.18.49 3.45s2.28.91 5 1.5c0-.01 0-.01 0-.02v-.96c0-.7.28-1.32.74-1.78s1.08-.74 1.78-.74c.32 0 .63.06.93.18l.07.03 3.19 1.27c.35-.3.8-.48 1.29-.48s.94.18 1.29.48l3.26-1.3c.24-.1.48-.15.73-.17l.21-1.46.6-4.18 7.91-2.37s1-2 1-4c0-.83-.52-3.39-1.12-6.1z" fill="#b4dd7f"/><path d="m39 4v1c0 1.94-.78 3.68-2.05 4.95s-3.01 2.05-4.95 2.05c-3.87 0-7-3.13-7-7v-1z" fill="#e6e9ed"/><path d="m50 20v4l-8.51 2.55.6-4.18z" fill="#ffeaa7"/><path d="m44 30.52v.96c0 .7-.28 1.32-.74 1.78-.01.01-.01.01-.02.02-.46.45-1.07.72-1.76.72-.32 0-.63-.06-.93-.18l-3.26-1.3c.43-.36.71-.91.71-1.52s-.28-1.16-.71-1.52l3.26-1.3c.24-.1.48-.15.73-.17.07-.01.13-.01.2-.01 1.39 0 2.52 1.13 2.52 2.52z" fill="#fcd770"/><path d="m37.29 29.48c.43.36.71.91.71 1.52s-.28 1.16-.71 1.52c-.35.3-.8.48-1.29.48s-.94-.18-1.29-.48c-.43-.36-.71-.91-.71-1.52s.28-1.16.71-1.52c.35-.3.8-.48 1.29-.48s.94.18 1.29.48z" fill="#ffc729"/><path d="m34.71 29.48c-.43.36-.71.91-.71 1.52s.28 1.16.71 1.52l-3.26 1.3c-.3.12-.61.18-.93.18-1.38 0-2.51-1.12-2.52-2.5 0-.01 0-.01 0-.02v-.96c0-.7.28-1.32.74-1.78s1.08-.74 1.78-.74c.32 0 .63.06.93.18l.07.03z" fill="#fcd770"/><path d="m21.91 22.37.6 4.18-8.51-2.55v-4z" fill="#ffeaa7"/></g><g><path d="m50.852 9.686c-1.145-5.115-5.607-8.686-10.852-8.686h-2v2h-12v-2h-2c-5.245 0-9.707 3.571-10.852 8.686-1.029 4.599-1.148 5.806-1.148 6.314 0 1.824.723 3.604 1 4.223v4.521l8.608 2.582.345 2.418c-5.772 7.85-8.953 17.509-8.953 27.256v1.535l.445.297c.255.17 6.392 4.168 18.555 4.168s18.3-3.998 18.555-4.168l.445-.297v-1.535c0-8.338-2.276-16.488-6.557-23.633.348-.545.557-1.189.557-1.883v-.969c0-1.507-.958-2.785-2.293-3.284l8.293-2.487v-4.521c.277-.618 1-2.398 1-4.223 0-.508-.119-1.715-1.148-6.314zm-12.852-4.686c0 3.309-2.691 6-6 6s-6-2.691-6-6zm-22.9 5.123c.938-4.194 4.598-7.123 8.9-7.123v2c0 4.072 3.06 7.436 7 7.931v2.069h2v-2.069c3.94-.495 7-3.859 7-7.931v-2c4.302 0 7.962 2.929 8.9 7.123.957 4.276 1.1 5.518 1.1 5.877 0 1.261-.468 2.554-.727 3.174l-5.972 1.792.289-2.024c.228-1.593.979-3.097 2.117-4.234l-1.414-1.414c-1.442 1.441-2.395 3.348-2.684 5.365l-1.218 8.531c-.07.023-.143.035-.212.062l-2.779 1.111c-.42-.224-.892-.363-1.4-.363s-.98.139-1.4.363l-2.781-1.113c-.419-.166-.857-.25-1.303-.25-1.845 0-3.346 1.434-3.488 3.243-1.342-.351-2.487-.741-3.121-.971l-1.516-10.614c-.289-2.018-1.241-3.924-2.684-5.365l-1.414 1.414c1.138 1.138 1.89 2.642 2.117 4.234l.289 2.024-5.972-1.792c-.259-.619-.727-1.912-.727-3.173 0-.359.143-1.601 1.1-5.877zm21.9 20.877c0 .552-.448 1-1 1s-1-.448-1-1 .448-1 1-1 1 .448 1 1zm-3.802 1.044-2.117.847c-.183.072-.373.109-.565.109-.836 0-1.516-.68-1.516-1.516v-.969c0-.835.68-1.515 1.516-1.515.192 0 .383.037.563.108l2.119.848c-.122.326-.198.676-.198 1.044 0 .369.076.718.198 1.044zm-18.198-8.788-.001-1.912 6.012 1.803.285 1.997zm34 34.172c-1.573.863-7.283 3.572-17 3.572-9.719 0-15.43-2.71-17-3.572v-.428c0-9.21 2.971-18.337 8.366-25.797.793.285 2.155.736 3.746 1.12.379 1.533 1.756 2.677 3.404 2.677.446 0 .885-.084 1.306-.251l2.779-1.112c.094.05.186.103.285.143-.227.843-.767 1.773-1.371 2.812-1.12 1.925-2.515 4.321-2.515 7.408h2c0-2.548 1.191-4.596 2.243-6.402.185-.318.366-.631.539-.943.306.719.662 1.376 1.003 1.996.652 1.188 1.215 2.213 1.215 3.349h2c0-1.648-.743-3.003-1.462-4.312-.645-1.175-1.305-2.387-1.486-3.889.121-.046.234-.102.347-.162l2.781 1.113c.42.166.858.25 1.304.25.505 0 .982-.111 1.416-.304 3.98 6.762 6.1 14.444 6.1 22.304zm-6-25.944c0 .836-.68 1.516-1.516 1.516-.192 0-.383-.037-.563-.108l-2.119-.848c.122-.326.198-.676.198-1.044s-.076-.718-.198-1.044l2.117-.847c.183-.072.373-.109.565-.109.836 0 1.516.68 1.516 1.516zm-.296-6.34.285-1.997 6.011-1.803v1.912z"/><path d="m31 17h2v2h-2z"/><path d="m31 21h2v2h-2z"/><path d="m31 25h2v2h-2z"/><path d="m44.987 55.914 2-.053c-.019-.683-.05-1.362-.097-2.041l-1.996.139c.045.649.077 1.302.093 1.955z"/><path d="m44.101 48.15 1.959-.4c-.137-.669-.288-1.334-.455-1.994l-1.939.488c.158.633.304 1.269.435 1.906z"/><path d="m44.716 52.011 1.987-.225c-.076-.679-.169-1.354-.276-2.026l-1.975.314c.102.643.191 1.287.264 1.937z"/><path d="m17 57h2c0-6.747 1.585-13.51 4.584-19.556l-1.791-.889c-3.136 6.321-4.793 13.391-4.793 20.445z"/></g></g></svg>