<svg height="512" viewBox="0 0 58 56" width="512" xmlns="http://www.w3.org/2000/svg"><g id="Page-1" fill="none" fill-rule="evenodd"><g id="030---Lace-Bra" fill-rule="nonzero" transform="translate(-1)"><path id="Shape" d="m14.17.37c-.427199-.3070554-.9595991-.43018032-1.4782338-.3418621-.5186346.08831822-.980275.38071816-1.2817662.8118621-4.98 7.04-4.53 16.5-4.41 18.16 0 0 6.68 1.21 8.0000157 1.84l-.0000157-18.84c.0025566-.64543146-.3065258-1.2524247-.83-1.63z" fill="#df4d60"/><path id="Shape" d="m48.59.84c-.3014912-.43114394-.7631316-.72354388-1.2817662-.8118621-.5186347-.08831822-1.0510348.0348067-1.4782338.3418621-.5234742.3775753-.8325566.98456854-.83 1.63l-.0000157 18.84c1.3100157-.63 8.0000157-1.84 8.0000157-1.84.12-1.66.57-11.12-4.41-18.16z" fill="#df4d60"/><path id="Shape" d="m7 19c-.12-1.66-.57-11.12 4.41-18.16.3014912-.43114394.7631316-.72354388 1.2817662-.8118621.5186347-.08831822 1.0510348.0348067 1.4782338.3418621.8916603.64700667 1.0967623 1.89099534.46 2.79-3.97 5.64-3.73 14.38-3.63 16.25z" fill="#ff5364"/><path id="Shape" d="m48.99 19.41c.1-1.87.35-10.61-3.62-16.25-.6367623-.89900466-.4316603-2.14299333.46-2.79.427199-.3070554.9595991-.43018032 1.4782338-.3418621.5186346.08831822.980275.38071816 1.2817662.8118621 4.98 7.04 4.53 16.5 4.41 18.16z" fill="#ff5364"/><path id="Shape" d="m56 41.29v7.71c0 2.209139-1.790861 4-4 4-.7994497.003067-1.5808413-.2376295-2.24-.69-.4234553 1.2476197-1.4391201 2.2033125-2.7101732 2.5501456s-2.6313674.0394753-3.6298268-.8201456c-.7260732 1.2389645-2.0653106 1.9885024-3.5010583 1.9594555-1.4357478-.0290469-2.7435736-.8321381-3.4189417-2.0994555-.614499 1.1548814-1.7597065 1.9317608-3.0599436 2.075787-1.3002371.1440263-2.5877048-.3633875-3.4400564-1.355787-.8523516.9923995-2.1398193 1.4998133-3.4400564 1.355787-1.3002371-.1440262-2.4454446-.9209056-3.0599436-2.075787-.6753681 1.2673174-1.9831939 2.0704086-3.4189417 2.0994555-1.4357477.0290469-2.7749851-.720491-3.5010583-1.9594555-.9984594.8596209-2.3587737 1.1669787-3.6298268.8201456s-2.2867179-1.3025259-2.7101732-2.5501456c-.6591587.4523705-1.44055026.693067-2.24.69-2.209139 0-4-1.790861-4-4v-7.71l22-1.29c1.2527081.5984067 2.6130662.9384962 4 1 1.3869338-.0615038 2.7472919-.4015933 4-1z" fill="#df4d60"/><g fill="#ff5364"><path id="Shape" d="m35 48c-.3346327.0003846-.6472789-.1666353-.833-.445-.4453345-.8323699-1.3572156-1.3046083-2.294-1.188-.466132.0660817-.9144832.2241433-1.319.465-.3360369.2241995-.7739631.2241995-1.11 0-.5635358-.4194403-1.27852-.580204-1.9673609-.4423595-.6888409.1378444-1.286904.5613629-1.6456391 1.1653595-.1982824.297245-.5400812.4661282-.8966441.4430331s-.6737195-.2346599-.832-.555c-.1582805-.32034-.1336383-.7007881.0646441-.9980331 1.2182682-1.9885274 3.7734423-2.6859107 5.833-1.592 2.0593773-1.0927417 4.6134664-.395535 5.832 1.592.2047322.3068587.2239019.7015085.049874 1.026765-.174028.3252566-.5129871.5282902-.881874.528235z"/><path id="Shape" d="m7 19c-3.82855571 3.0388735-6.04221898 7.6731775-6 12.561 0 8.373 4.327 13.439 11.9 13.439 4.8031536-.153762 9.4158884-1.9143478 13.1-5 0 0-1-14-8.886-18.111-3.359-1.751-5.787-2.889-10.114-2.889z"/><path id="Shape" d="m53 19c3.8285557 3.0388735 6.042219 7.6731775 6 12.561 0 8.373-4.327 13.439-11.9 13.439-4.8031536-.153762-9.4158884-1.9143478-13.1-5 0 0 1-14 8.886-18.111 3.359-1.751 5.787-2.889 10.114-2.889z"/></g><path id="Shape" d="m26 40c-1.033156.8770338-2.1521548 1.6476019-3.34 2.3-.32-2.88-1.99-13.85-8.81-17.41-3.3-1.72-5.44-2.85-9.6-2.89h-.15c.81262779-1.1382114 1.78998113-2.1492666 2.9-3 4.33 0 6.75 1.14 10.11 2.89 7.89 4.11 8.89 18.11 8.89 18.11z" fill="#fb7b76"/><path id="Shape" d="m55.9 22h-.15c-4.16.04-6.3 1.17-9.6 2.89-6.82 3.56-8.49 14.53-8.81 17.41-1.1878452-.6523981-2.306844-1.4229662-3.34-2.3 0 0 1-14 8.89-18.11 3.36-1.75 5.78-2.89 10.11-2.89 1.1100189.8507334 2.0873722 1.8617886 2.9 3z" fill="#fb7b76"/></g></g></svg>