<svg id="filled_outline" enable-background="new 0 0 512 512" height="512" viewBox="0 0 512 512" width="512" xmlns="http://www.w3.org/2000/svg"><g><g><circle cx="192" cy="192" fill="#f249b4" r="168"/><path d="m312.000061 440h-240.0001068c-26.5096435 0-47.9999542-21.4902954-47.9999542-47.999939v-.000061h336v.000061c0 26.5096436-21.4902954 47.999939-47.999939 47.999939z" fill="#fbc6ea"/><circle cx="192" cy="192" fill="#00a8e7" r="128"/><path d="m64 360h256v32h-256z" fill="#bc2289"/><path d="m109.0048828 162.6660156-15.0849609-5.3320313c14.6582031-41.470703 54.0737304-69.3339843 98.0800781-69.3339843v16c-37.2387695 0-70.5917969 23.5761719-82.9951172 58.6660156z" fill="#eceff0"/><path d="m104 192h-16c0-5.8076172.4833984-11.6357422 1.4374771-17.3232422l15.7793198 2.6464844c-.8071289 4.8154297-1.2167969 9.753418-1.2167969 14.6767578z" fill="#eceff0"/><path d="m319.9999695 152.000061.0000305-.000061h56l16 16 16-16 16 16 16-16h24l.0000305.000061c15.460144 36.0736542 17.1444092 76.5665894 4.733429 113.79953l-20.7334595 62.200409h-112l-20.7334595-62.2004089c-12.4109802-37.2329407-10.7267151-77.7258759 4.733429-113.7995301z" fill="#fff0c3"/><path d="m320 328h144v32h-144z" fill="#bc2289"/><path d="m392.0000916 488h-.0001831c-53.0192872 0-95.9999085-42.9806213-95.9999085-95.9999084v-32.0000916h192v32.0000916c0 53.0192871-42.9806213 95.9999084-95.9999084 95.9999084z" fill="#f249b4"/><path d="m392 464v-16c4.7460938 0 9.4584961-.5932617 14.0063477-1.7636719l3.9873047 15.4951172c-5.8496094 1.5053711-11.9038086 2.2685547-17.9936524 2.2685547z" fill="#eceff0"/><path d="m426.8891602 454.9951172-7.7626953-13.9902344c17.8095703-9.8828125 28.8735351-28.6601562 28.8735351-49.0048828h16c0 26.1552734-14.2197266 50.293457-37.1108398 62.9951172z" fill="#eceff0"/><g fill="#f7d880"><path d="m384 256h16v72h-16z"/><path d="m422.027 256h16.39v16h-16.39z" transform="matrix(.217 -.976 .976 .217 79.185 626.712)"/><path d="m401.561 302h36.878v16h-36.878z" transform="matrix(.217 -.976 .976 .217 26.276 652.755)"/><path d="m356 291.561h16v36.878h-16z" transform="matrix(.976 -.217 .217 .976 -58.581 86.345)"/></g></g><g><path d="m488 352h-16v-24c0-4.418457-3.581543-8-8-8h-4.901001l17.2208252-51.671875c5.7265625-17.1894531 8.6303711-35.0913086 8.6303711-53.2080078 0-22.9262695-4.574707-45.2236328-13.597168-66.2719727-1.2607421-2.9414062-4.152832-4.8481445-7.3530273-4.8481445h-24c-2.121582 0-4.1567383.8427734-5.6567383 2.3432617l-10.3432617 10.3427735-10.3432617-10.3427734c-3.1240234-3.1240234-8.1894531-3.1240234-11.3134766 0l-10.3432617 10.3427734-10.3432617-10.3427734c-1.5-1.5004884-3.5351563-2.3432618-5.6567383-2.3432618h-14.6362305c-9.9797363-35.1844482-31.0710449-66.8922119-59.8847656-89.8120117-31.4077148-24.9829102-69.2646484-38.1879883-109.4790039-38.1879883-97.046875 0-176 78.953125-176 176 0 70.9099121 42.1567993 132.1513672 102.7197876 160h-54.7197876c-4.418457 0-8 3.581543-8 8v24h-32c-4.418457 0-8 3.581543-8 8 0 30.878418 25.121582 56 56 56h232.3981934c18.5048828 28.8466797 50.8586425 48 87.6018066 48 57.3457031 0 104-46.6542969 104-104v-32c0-4.418457-3.581543-8-8-8zm-192 0h-30.3967285c21.086792-9.6945801 40.1970215-23.6018066 56.2386475-41.1812744l3.0594482 9.1812744h-4.9013672c-4.418457 0-8 3.581543-8 8v24zm5.2004395-110.2403564c-19.4848633 42.7398681-62.0881348 70.2403564-109.2004395 70.2403564-66.1679688 0-120-53.8320313-120-120s53.8320313-120 120-120c54.6830444 0 102.0302734 36.543457 115.958252 89.1322021-8.7679444 25.8988038-11.0938721 53.6629639-6.7578125 80.6274415zm26.7995605 94.2403564h8 112 8v16h-128zm44.6860352-176 13.6572266 13.6567383c3.1240234 3.1240234 8.1894531 3.1240234 11.3134766 0l10.3432616-10.3427735 10.3432617 10.3427734c3.1240234 3.1240234 8.1894531 3.1240234 11.3134766 0l13.6572265-13.6567382h15.3149414c6.8515625 17.6088867 10.3212891 36.1245117 10.3212891 55.1201172 0 16.3950195-2.6279297 32.5952148-7.8095703 48.1503906l-18.9072266 56.7294922h-16.260498l5.8366699-26.2646484-15.6191406-3.4707031-6.6079102 29.7353515h-9.5825195v-64h-16v64h-9.5825195l-6.6079102-29.7353516-15.6191406 3.4707031 5.8366699 26.2646485h-16.260498l-9.2568359-27.7792969-.0002441.0001221c-.0001221-.0001221-.0002441-.0003662-.0002441-.0006104l-9.6499023-28.9501953s0 0 0-.0004883c-2.3652344-7.0947266-4.215332-14.4179688-5.5009766-21.7792969-4.5639648-25.8701172-2.3198242-52.6381836 6.484375-77.3964844.4907227-1.3720703 1.0009766-2.7392578 1.5283203-4.09375h29.8388672 17.4760741zm-340.6860352 32c0-88.2241211 71.7758789-160 160-160 70.534668 0 131.9194336 45.5581055 152.6860352 112h-24.6860352c-.2441406 0-.4819336.0317383-.7219238.0534668-8.6401367-22.8460693-23.4521484-43.2636719-42.7346191-58.5866699-24.2592774-19.2773438-53.4936524-29.4667969-84.5434571-29.4667969-74.9907227 0-136 61.0092773-136 136s61.0092773 136 136 136c46.9494019 0 89.9475098-24.1008301 114.6589355-62.8476563.3308105 1.0631104.670166 2.1228027 1.0217285 3.1772461l8.2788086 24.8378906c-30.5532226 37.4448243-75.4912109 58.8325196-123.9594726 58.8325196-88.2241211 0-160-71.7758789-160-160zm40 176h216v16h-216zm0 64c-19.3164063 0-35.4794922-13.7651367-39.1962891-32h31.1962891 224.3046875c.8605957 11.2592773 3.526001 22.0205078 7.6999512 32zm408-40c0 48.5234375-39.4765625 88-88 88s-88-39.4765625-88-88v-24h16 144 16z"/><path d="m93.9199219 157.3339844 15.0849609 5.3320313c12.4033203-35.0898438 45.7563477-58.6660157 82.9951172-58.6660157v-16c-44.0063477 0-83.421875 27.8632813-98.0800781 69.3339844z"/><path d="m88 192h16c0-4.9233398.409668-9.8613281 1.2167969-14.6767578l-15.7793198-2.6464844c-.9540787 5.6875-1.4374771 11.515625-1.4374771 17.3232422z"/><path d="m392 448v16c6.0898438 0 12.144043-.7631836 17.9936523-2.2685547l-3.9873047-15.4951172c-4.5478515 1.1704102-9.2602538 1.7636719-14.0063476 1.7636719z"/><path d="m419.1264648 441.0048828 7.7626953 13.9902344c22.8911133-12.7016602 37.1108399-36.8398438 37.1108399-62.9951172h-16c0 20.3447266-11.0639648 39.1220703-28.8735352 49.0048828z"/><path d="m422.027 256h16.39v16h-16.39z" transform="matrix(.217 -.976 .976 .217 79.185 626.712)"/></g></g></svg>