<?xml version="1.0" encoding="iso-8859-1"?>
<!-- Generator: Adobe Illustrator 19.0.0, SVG Export Plug-In . SVG Version: 6.00 Build 0)  -->
<svg version="1.1" id="Layer_1" xmlns="http://www.w3.org/2000/svg" xmlns:xlink="http://www.w3.org/1999/xlink" x="0px" y="0px"
	 viewBox="0 0 512 512" style="enable-background:new 0 0 512 512;" xml:space="preserve">
<g transform="translate(1)">
	<g>
		<path style="fill:#FFE100;" d="M194.564,93.867c-5.12,0-8.533-3.413-8.533-8.533c0-34.133-17.067-68.267-34.133-68.267
			c-5.12,0-8.533-3.413-8.533-8.533S146.777,0,151.897,0c29.867,0,51.2,45.227,51.2,85.333
			C203.097,89.6,199.684,93.867,194.564,93.867z"/>
		<path style="fill:#FFE100;" d="M331.097,93.867c-5.12,0-8.533-3.413-8.533-8.533c0-40.107,21.333-85.333,51.2-85.333
			c5.12,0,8.533,3.413,8.533,8.533s-3.413,8.533-8.533,8.533c-17.067,0-34.133,34.133-34.133,68.267
			C339.631,89.6,336.217,93.867,331.097,93.867z"/>
		<path style="fill:#FFE100;" d="M169.817,174.933c11.093,12.8,16.213,37.547,16.213,64h136.533c0.853-23.04,5.973-46.933,15.36-64
			l0.853-0.853c5.973-8.533,7.68-18.773,5.12-29.013l-11.093-49.493c-1.707-5.973-6.827-10.24-12.8-10.24
			c-4.267,0-8.533,1.707-10.24,5.12l-55.467,80.213l-55.467-80.213c-2.56-3.413-5.973-5.12-10.24-5.12
			c-5.973,0-11.093,4.267-12.8,10.24l-11.947,49.493C162.137,154.453,163.844,165.547,169.817,174.933L169.817,174.933z"/>
		<path style="fill:#FFE100;" d="M475.311,486.4c0-0.853,0.853-0.853,0.853-0.853l0,0c-73.387-73.387-130.56-191.147-153.6-246.613
			h-93.867l0,0C228.697,375.467,338.777,486.4,475.311,486.4"/>
	</g>
	<g>
		<path style="fill:#FFA800;" d="M343.897,145.067l-11.093-49.493c-1.707-5.973-6.827-10.24-12.8-10.24
			c-4.267,0-8.533,1.707-10.24,5.12l-2.56,4.267v0.853l11.093,49.493c2.56,10.24,0,20.48-5.12,29.013l-0.853,0.853
			c-9.387,17.067-14.507,40.96-15.36,64h25.6c0.853-23.04,5.973-46.933,15.36-64l0.853-0.853
			C344.751,165.547,346.457,155.307,343.897,145.067"/>
		<path style="fill:#FFA800;" d="M476.164,485.547c-73.387-73.387-130.56-191.147-153.6-246.613h-25.6
			c23.04,55.467,80.213,172.373,153.6,245.76c8.533,0.853,17.067,1.707,25.6,1.707C476.164,485.547,476.164,485.547,476.164,485.547
			L476.164,485.547z"/>
	</g>
	<path style="fill:#FFE100;" d="M228.697,238.933L228.697,238.933h-42.667c-23.04,55.467-80.213,174.08-153.6,247.467l0,0
		c97.28,0,180.907-56.32,221.013-137.387l0,0C238.084,315.733,228.697,278.187,228.697,238.933"/>
	<path style="fill:#FDCC00;" d="M475.311,484.693l0.853,0.853l0,0c0,0,0,0-0.853,0.853c-96.427,0-180.907-56.32-221.013-137.387
		C214.191,430.08,130.564,486.4,33.284,486.4c-0.853-0.853-0.853-0.853-0.853-0.853s17.067,34.133,93.867,8.533
		c0,0,36.693-11.947,69.12-5.973c14.507,3.413,29.867,6.827,45.227,6.827h13.653h13.653c15.36,0,29.867-3.413,45.227-6.827
		c32.427-6.827,69.12,5.973,69.12,5.973c76.8,25.6,93.867-8.533,93.867-8.533C476.164,484.693,475.311,484.693,475.311,484.693"/>
	<g>
		<path style="fill:#FFFFFF;" d="M163.844,145.067l11.093-49.493c1.707-5.973,6.827-10.24,12.8-10.24
			c4.267,0,8.533,1.707,10.24,5.12l2.56,4.267v0.853l-11.093,49.493c-2.56,10.24,0,20.48,5.12,29.013l0.853,0.853
			c9.387,17.067,14.507,40.96,15.36,64h-25.6c-0.853-23.04-5.973-46.933-15.36-64l-0.853-0.853
			C163.844,165.547,162.137,155.307,163.844,145.067"/>
		<path style="fill:#FFFFFF;" d="M32.431,485.547c73.387-73.387,130.56-191.147,153.6-246.613h25.6
			c-23.04,55.467-80.213,172.373-153.6,245.76c-8.533,0.853-17.067,1.707-25.6,1.707C32.431,485.547,32.431,485.547,32.431,485.547
			L32.431,485.547z"/>
	</g>
	<path d="M186.031,93.867c-5.12,0-8.533-3.413-8.533-8.533c0-34.133-17.067-68.267-34.133-68.267c-5.12,0-8.533-3.413-8.533-8.533
		S138.244,0,143.364,0c29.867,0,51.2,45.227,51.2,85.333C194.564,89.6,191.151,93.867,186.031,93.867z"/>
	<path d="M322.564,93.867c-5.12,0-8.533-3.413-8.533-8.533c0-40.107,21.333-85.333,51.2-85.333c5.12,0,8.533,3.413,8.533,8.533
		s-3.413,8.533-8.533,8.533c-17.067,0-34.133,34.133-34.133,68.267C331.097,89.6,327.684,93.867,322.564,93.867z"/>
	<path d="M322.564,247.467H186.031c-5.12,0-8.533-3.413-8.533-8.533c0-26.453-5.12-48.64-13.653-58.88l-0.853-0.853
		c-7.68-11.093-9.387-23.893-6.827-36.693l11.093-49.493c1.707-9.387,10.24-16.213,20.48-16.213c6.827,0,13.653,3.413,17.92,9.387
		l48.64,69.973l48.64-69.973c4.267-5.973,11.093-9.387,17.92-9.387c10.24,0,18.773,6.827,21.333,17.067l11.093,49.493
		c2.56,11.947,0,25.6-6.827,35.84c-8.533,14.507-13.653,36.693-14.507,60.587C331.097,244.053,327.684,247.467,322.564,247.467z
		 M194.564,230.4h120.32c1.707-23.893,7.68-45.227,16.213-59.733l0.853-0.853c4.267-6.827,5.973-14.507,4.267-22.187l-11.093-49.493
		c-0.853-3.413-5.973-4.267-7.68-1.707l-55.467,80.213c-3.413,4.267-11.093,4.267-13.653,0l-55.467-80.213
		c-1.707-2.56-6.827-1.707-7.68,1.707l-11.093,49.493c-1.707,7.68,0,16.213,4.267,22.187l0,0
		C186.884,181.76,192.857,203.947,194.564,230.4z"/>
	<path d="M475.311,494.933L475.311,494.933c-140.8,0-255.147-115.2-255.147-256c0-5.12,3.413-8.533,8.533-8.533h93.867
		c3.413,0,6.827,1.707,7.68,5.12c11.093,26.453,70.827,162.133,151.893,244.053c1.707,1.707,2.56,3.413,2.56,5.973
		c0,1.707,0,2.56-0.853,4.267c0,0,0,0.853-0.853,1.707C481.284,493.227,478.724,494.933,475.311,494.933z M237.231,247.467
		c4.267,121.173,98.987,219.307,219.307,229.547c-70.827-77.653-122.027-188.587-139.947-229.547H237.231z"/>
	<path d="M432.644,512L432.644,512c-15.36,0-33.28-3.413-52.907-10.24c0,0-22.187-6.827-45.227-6.827
		c-6.827,0-13.653,0.853-19.627,1.707l-2.56,0.853c-14.507,3.413-29.013,5.973-43.52,5.973h-28.16
		c-15.36,0-29.867-3.413-43.52-5.973l-2.56-0.853c-5.973-0.853-11.947-1.707-19.627-1.707c-23.893,0-45.227,6.827-45.227,6.827
		c-20.48,6.827-38.4,10.24-53.76,10.24c-32.427,0-46.08-14.507-49.493-20.48c0,0,0,0,0-0.853v-0.853v-0.853l0,0l0,0l0,0
		c-1.707-4.267-0.853-9.387,3.413-11.093c2.56-1.707,5.12-1.707,7.68,0c89.6-1.707,170.667-52.053,209.92-133.12
		c2.56-5.973,12.8-5.973,15.36,0c40.107,80.213,119.467,130.56,208.213,133.12c3.413-2.56,6.827-2.56,10.24,0
		c0,0,0.853,0,0.853,0.853l0,0l0.853,0.853l0,0c2.56,2.56,3.413,6.827,1.707,10.24c0,0,0,0.853-0.853,0.853c0,0,0,0,0,0.853
		c0,0,0,0.853-0.853,0.853C477.871,497.493,465.071,512,432.644,512z M334.511,477.867c26.453,0,49.493,7.68,50.347,7.68
		c17.92,5.973,34.133,9.387,47.787,9.387c5.973,0,11.093-0.853,15.36-1.707c-81.067-8.533-152.747-55.467-193.707-126.293
		c-40.96,71.68-112.64,117.76-193.707,126.293c4.267,0.853,9.387,1.707,15.36,1.707c13.653,0,29.867-3.413,47.787-9.387
		c0.853,0,24.747-7.68,50.347-7.68c8.533,0,16.213,0.853,23.04,2.56l2.56,0.853c13.653,2.56,27.307,5.973,40.107,5.973h28.16
		c13.653,0,27.307-2.56,40.107-5.973l2.56-0.853C318.297,478.72,325.977,477.867,334.511,477.867z"/>
	<path d="M33.284,494.933c-2.56,0-5.12-1.707-6.827-3.413l-0.853-0.853c-1.707-3.413-1.707-7.68,0.853-11.093
		c78.507-78.507,135.68-206.507,151.893-244.053c1.707-3.413,4.267-5.12,7.68-5.12l0,0h42.667c5.12,0,8.533,3.413,8.533,8.533
		c0,37.547,8.533,72.533,24.747,105.813c1.707,2.56,0.853,5.973,0,8.533C218.457,440.32,130.564,494.933,33.284,494.933
		L33.284,494.933z M192.004,247.467c-17.92,40.96-68.267,151.893-138.24,229.547c81.92-6.827,153.6-54.613,192-128
		c-15.36-31.573-23.04-65.707-24.747-100.693L192.004,247.467z"/>
</g>
<g>
</g>
<g>
</g>
<g>
</g>
<g>
</g>
<g>
</g>
<g>
</g>
<g>
</g>
<g>
</g>
<g>
</g>
<g>
</g>
<g>
</g>
<g>
</g>
<g>
</g>
<g>
</g>
<g>
</g>
</svg>
