<svg id="Layer_2" height="512" viewBox="0 0 128 128" width="512" xmlns="http://www.w3.org/2000/svg" data-name="Layer 2"><path d="m26.192 28.968h6v50.077h-6z" fill="#6fb2c3"/><path d="m44.489 40.846-18.1-5.028a3 3 0 0 1 -2.2-2.891v-14.727a3 3 0 0 1 2.2-2.891l18.1-5.028a3 3 0 0 1 3.8 2.891v24.783a3 3 0 0 1 -3.8 2.891z" fill="#ccc"/><path d="m43.755 12.493v25.714a6 6 0 0 0 6 6 6.018 6.018 0 0 0 6-6v-25.707a6.018 6.018 0 0 0 -6-6h-.007a5.993 5.993 0 0 0 -5.993 5.993z" fill="#81cee2"/><path d="m95.808 40.201h6v50.077h-6z" fill="#6fb2c3"/><path d="m83.511 52.079 18.1-5.027a3 3 0 0 0 2.2-2.891v-14.726a3 3 0 0 0 -2.2-2.89l-18.1-5.028a3 3 0 0 0 -3.8 2.891v24.781a3 3 0 0 0 3.8 2.89z" fill="#ccc"/><path d="m84.245 23.727v25.714a6 6 0 0 1 -6 6 6.018 6.018 0 0 1 -6-6v-25.707a6.018 6.018 0 0 1 6-6h.007a5.993 5.993 0 0 1 5.993 5.993z" fill="#81cee2"/><g fill="#2d1503"><path d="m49.748 4.75a7.748 7.748 0 0 0 -6.855 4.15l-6.872 1.911a1.75 1.75 0 0 0 .467 3.436 1.768 1.768 0 0 0 .47-.064l5.047-1.4v25.424c0 .045.006.089.007.134l-15.145-4.2c-.031-.013-.062-.026-.094-.036a1.245 1.245 0 0 1 -.832-1.17v-14.735a1.256 1.256 0 0 1 .918-1.2l3.5-.972a1.75 1.75 0 1 0 -.937-3.372l-3.5.972a4.763 4.763 0 0 0 -3.482 4.572v14.73a4.742 4.742 0 0 0 2 3.852v42.258a1.75 1.75 0 0 0 1.75 1.75h1.25v40.71a1.75 1.75 0 0 0 3.5 0v-40.71h1.25a1.749 1.749 0 0 0 1.75-1.75v-39.307l9.246 2.567a7.742 7.742 0 0 0 14.319-4.093v-4.144a1.75 1.75 0 0 0 -3.5 0v4.144a4.25 4.25 0 0 1 -8.5 0v-25.714a4.25 4.25 0 0 1 8.5.007v3.563a1.75 1.75 0 0 0 3.5 0v-3.563a7.761 7.761 0 0 0 -7.757-7.75zm-19.308 72.54h-2.5v-39.223l2.5.694z"/><path d="m55.755 21.5a1.749 1.749 0 0 0 -1.75 1.75v4.125a1.75 1.75 0 0 0 3.5 0v-4.125a1.749 1.749 0 0 0 -1.75-1.75z"/><path d="m102.078 24.854-16.968-4.71a7.748 7.748 0 0 0 -14.61 3.589v25.707a7.742 7.742 0 0 0 14.321 4.09l9.244-2.567v39.317a1.749 1.749 0 0 0 1.75 1.75h1.25v29.47a1.75 1.75 0 0 0 3.5 0v-29.47h1.25a1.75 1.75 0 0 0 1.75-1.75v-35.28a1.75 1.75 0 0 0 -3.5 0v33.53h-2.5v-38.539l4.525-1.257a3.251 3.251 0 0 0 .372-.127 4.752 4.752 0 0 0 3.1-4.447v-14.72a4.792 4.792 0 0 0 -3.484-4.586zm-23.833 28.836a4.254 4.254 0 0 1 -4.245-4.25v-25.707a4.25 4.25 0 0 1 8.5-.006v25.713a4.254 4.254 0 0 1 -4.255 4.25zm23.815-9.53a1.246 1.246 0 0 1 -.833 1.17l-.091.035-15.148 4.206c0-.044.007-.086.007-.131v-25.418l15.136 4.2a1.276 1.276 0 0 1 .929 1.217z"/></g></svg>