<svg height="511pt" viewBox="-7 0 511 511.872" width="511pt" xmlns="http://www.w3.org/2000/svg"><path d="m136.484375 127.894531h40c30.960937 0 56 24.960938 56 55.921875-5.441406 0-10.800781-.402344-16-1.121094-8.320313-1.199218-16.398437-3.359374-24-6.238281-23.921875-9.199219-43.921875-26.242187-56.640625-48.160156zm0 0" fill="#d7e9ff"/><path d="m8.5625 183.816406c0-30.960937 25.042969-56 56-56h40.960938c-12.800782 22.160156-32.878907 39.441406-57.039063 48.640625-7.601563 2.957031-15.679687 5.039063-24 6.238281-5.207031.71875-10.480469 1.121094-15.921875 1.121094zm0 0" fill="#d7e9ff"/><path d="m144.484375 191.894531c0 13.203125-10.71875 24-24 24-13.199219 0-24-10.796875-24-24 0-13.277343 24-32 24-32s24 18.722657 24 32zm0 0" fill="#94c1ff"/><path d="m24.484375 182.695312c8.320313-1.199218 16.398437-3.28125 24-6.238281v7.359375c0 39.757813 32.238281 72.078125 72 72.078125 39.757813 0 72-32.320312 72-72.078125v-7.359375c7.601563 2.878907 15.679687 5.039063 24 6.238281v3.601563c-.800781 34.558594-19.921875 64.558594-48 80.71875-14.160156 8.242187-30.558594 12.878906-48 12.878906s-33.839844-4.636719-48-12.878906c-28.640625-16.558594-48-47.601563-48-83.199219zm0 0" fill="#d7e9ff"/><path d="m40.484375 319.894531c0 8.800781-7.121094 16-16 16-8.800781 0-16-7.199219-16-16 0-8.878906 16-24 16-24s16 15.121094 16 24zm0 0" fill="#94c1ff"/><path d="m88.484375 399.808594c0 8.878906-7.199219 16-16 16-8.878906 0-16-7.121094-16-16 0-8.800782 16-24 16-24s16 15.207031 16 24zm0 0" fill="#94c1ff"/><path d="m232.484375 319.894531c0 8.800781-7.199219 16-16 16-8.878906 0-16-7.199219-16-16 0-8.878906 16-24 16-24s16 15.121094 16 24zm0 0" fill="#94c1ff"/><path d="m184.484375 399.808594c0 8.878906-7.121094 16-16 16-8.800781 0-16-7.121094-16-16 0-8.800782 16-24 16-24s16 15.207031 16 24zm0 0" fill="#94c1ff"/><path d="m136.484375 487.894531c0 8.800781-7.121094 16-16 16-8.800781 0-16-7.199219-16-16 0-8.878906 16-24 16-24s16 15.121094 16 24zm0 0" fill="#94c1ff"/><path d="m392.484375 127.894531h40c30.960937 0 56 24.960938 56 55.921875-5.441406 0-10.800781-.402344-16-1.121094-8.320313-1.199218-16.398437-3.359374-24-6.238281-23.921875-9.199219-43.921875-26.242187-56.640625-48.160156zm0 0" fill="#d7e9ff"/><path d="m264.5625 183.816406c0-30.960937 25.042969-56 56-56h40.960938c-12.800782 22.160156-32.878907 39.441406-57.039063 48.640625-7.601563 2.957031-15.679687 5.039063-24 6.238281-5.207031.71875-10.480469 1.121094-15.921875 1.121094zm0 0" fill="#d7e9ff"/><path d="m400.484375 191.894531c0 13.203125-10.71875 24-24 24-13.199219 0-24-10.796875-24-24 0-13.277343 24-32 24-32s24 18.722657 24 32zm0 0" fill="#94c1ff"/><path d="m280.484375 182.695312c8.320313-1.199218 16.398437-3.28125 24-6.238281v7.359375c0 39.757813 32.238281 72.078125 72 72.078125 39.757813 0 72-32.320312 72-72.078125v-7.359375c7.601563 2.878907 15.679687 5.039063 24 6.238281v3.601563c-.800781 34.558594-19.921875 64.558594-48 80.71875-14.160156 8.242187-30.558594 12.878906-48 12.878906s-33.839844-4.636719-48-12.878906c-28.640625-16.558594-48-47.601563-48-83.199219zm0 0" fill="#d7e9ff"/><path d="m296.484375 319.894531c0 8.800781-7.121094 16-16 16-8.800781 0-16-7.199219-16-16 0-8.878906 16-24 16-24s16 15.121094 16 24zm0 0" fill="#94c1ff"/><path d="m344.484375 399.808594c0 8.878906-7.199219 16-16 16-8.878906 0-16-7.121094-16-16 0-8.800782 16-24 16-24s16 15.207031 16 24zm0 0" fill="#94c1ff"/><path d="m488.484375 319.894531c0 8.800781-7.199219 16-16 16-8.878906 0-16-7.199219-16-16 0-8.878906 16-24 16-24s16 15.121094 16 24zm0 0" fill="#94c1ff"/><path d="m440.484375 399.808594c0 8.878906-7.121094 16-16 16-8.800781 0-16-7.121094-16-16 0-8.800782 16-24 16-24s16 15.207031 16 24zm0 0" fill="#94c1ff"/><path d="m392.484375 487.894531c0 8.800781-7.121094 16-16 16-8.800781 0-16-7.199219-16-16 0-8.878906 16-24 16-24s16 15.121094 16 24zm0 0" fill="#94c1ff"/><g fill="#116fff"><path d="m120.4375 287.871094c-57.363281 0-104.035156-46.679688-104.035156-104.054688 0-4.417968 3.578125-8 8-8 4.425781 0 8 3.582032 8 8 0 48.550782 39.496094 88.054688 88.035156 88.054688 48.542969 0 88.046875-39.503906 88.046875-88.054688 0-4.417968 3.574219-8 8-8 4.421875 0 8 3.582032 8 8 0 57.375-46.671875 104.054688-104.046875 104.054688zm0 0"/><path d="m120.4375 263.847656c-44.113281 0-80-35.902344-80-80.03125 0-4.417968 3.574219-8 8-8 4.421875 0 8 3.582032 8 8 0 35.3125 28.710938 64.03125 64 64.03125 35.292969 0 64.015625-28.71875 64.015625-64.03125 0-4.417968 3.574219-8 8-8 4.421875 0 8 3.582032 8 8 0 44.128906-35.898437 80.03125-80.015625 80.03125zm0 0"/><path d="m8.515625 191.816406c-4.421875 0-8-3.585937-8-8 0-4.417968 3.578125-8 8-8 57.3125 0 103.9375-46.625 103.9375-103.9375 0-4.414062 3.574219-8 8-8 4.421875 0 8 3.585938 8 8 0 66.128906-53.808594 119.9375-119.9375 119.9375zm0 0"/><path d="m232.421875 191.808594c-66.136719 0-119.9375-53.808594-119.9375-119.9375 0-4.414063 3.574219-8 8-8 4.421875 0 8 3.585937 8 8 0 57.3125 46.625 103.9375 103.9375 103.9375 4.421875 0 8 3.582031 8 8 0 4.414062-3.578125 8-8 8zm0 0"/><path d="m120.453125 223.847656c-17.648437 0-32-14.351562-32-32 0-16.335937 22.550781-34.777344 27.078125-38.304687 2.890625-2.253907 6.953125-2.253907 9.839844 0 4.519531 3.527343 27.082031 21.976562 27.082031 38.304687 0 17.640625-14.351563 32-32 32zm0-53.550781c-8.410156 7.558594-16 16.886719-16 21.550781 0 8.824219 7.175781 16 16 16s16-7.175781 16-16c0-4.664062-7.59375-13.992187-16-21.550781zm0 0"/><path d="m8.515625 191.792969c-4.421875 0-8-3.585938-8-8 0-35.273438 28.695313-63.96875 63.96875-63.96875 4.421875 0 8 3.582031 8 8 0 4.414062-3.578125 8-8 8-26.457031 0-47.96875 21.519531-47.96875 47.96875 0 4.414062-3.574219 8-8 8zm0 0"/><path d="m232.402344 191.792969c-4.421875 0-8-3.585938-8-8 0-26.441407-21.503906-47.953125-47.949219-47.953125-4.425781 0-8-3.582032-8-8 0-4.414063 3.574219-8 8-8 35.261719 0 63.949219 28.6875 63.949219 63.953125 0 4.414062-3.574219 8-8 8zm0 0"/><path d="m105.484375 135.824219h-41c-4.425781 0-8-3.585938-8-8 0-4.417969 3.574219-8 8-8h41c4.421875 0 8 3.582031 8 8 0 4.414062-3.578125 8-8 8zm0 0"/><path d="m176.453125 135.839844h-40c-4.425781 0-8-3.582032-8-8 0-4.414063 3.574219-8 8-8h40c4.421875 0 8 3.585937 8 8 0 4.417968-3.578125 8-8 8zm0 0"/><path d="m24.421875 191.792969c-4.425781 0-8-3.585938-8-8v-1.097657c0-4.414062 3.574219-8 8-8 4.421875 0 8 3.585938 8 8v1.097657c0 4.414062-3.578125 8-8 8zm0 0"/><path d="m216.4375 303.855469c-4.425781 0-8-3.574219-8-8v-113.183594c0-4.414063 3.574219-8 8-8 4.421875 0 8 3.585937 8 8v113.183594c0 4.425781-3.578125 8-8 8zm0 0"/><path d="m216.4375 343.855469c-13.234375 0-24-10.765625-24-24 0-11.398438 14.160156-25.695313 18.503906-29.808594 3.078125-2.917969 7.917969-2.917969 11 0 4.335938 4.113281 18.496094 18.410156 18.496094 29.808594 0 13.242187-10.769531 24-24 24zm.007812-36.414063c-4.472656 5.160156-7.90625 10.335938-8.007812 12.429688 0 4.402344 3.582031 7.984375 8 7.984375 4.414062 0 8-3.582031 8-8-.105469-2.085938-3.539062-7.269531-7.992188-12.414063zm0 0"/><path d="m120.4375 471.871094c-4.425781 0-8-3.574219-8-8v-184c0-4.421875 3.574219-8 8-8 4.421875 0 8 3.578125 8 8v184c0 4.425781-3.578125 8-8 8zm0 0"/><path d="m120.4375 511.871094c-13.234375 0-24-10.765625-24-24 0-11.398438 14.160156-25.695313 18.503906-29.808594 3.078125-2.917969 7.917969-2.917969 11 0 4.335938 4.113281 18.496094 18.410156 18.496094 29.808594 0 13.234375-10.769531 24-24 24zm.007812-36.414063c-4.472656 5.160157-7.90625 10.335938-8.007812 12.429688 0 4.402343 3.582031 7.984375 8 7.984375 4.414062 0 8-3.582032 8-8-.105469-2.09375-3.539062-7.269532-7.992188-12.414063zm0 0"/><path d="m168.4375 383.808594c-4.425781 0-8-3.578125-8-8v-108.777344c0-4.414062 3.574219-8 8-8 4.421875 0 8 3.585938 8 8v108.785156c0 4.414063-3.578125 7.992188-8 7.992188zm0 0"/><path d="m168.4375 423.808594c-13.234375 0-24-10.769532-24-24 0-11.382813 14.160156-25.6875 18.496094-29.808594 3.09375-2.921875 7.917968-2.921875 11.015625 0 4.328125 4.121094 18.488281 18.433594 18.488281 29.808594 0 13.238281-10.769531 24-24 24zm.007812-36.402344c-4.464843 5.152344-7.90625 10.335938-8.007812 12.425781 0 4.398438 3.582031 7.984375 8 7.984375 4.414062 0 8-3.585937 8-8-.105469-2.089844-3.539062-7.273437-7.992188-12.410156zm0 0"/><path d="m24.4375 303.855469c-4.425781 0-8-3.574219-8-8v-113.183594c0-4.414063 3.574219-8 8-8 4.421875 0 8 3.585937 8 8v113.183594c0 4.425781-3.578125 8-8 8zm0 0"/><path d="m24.4375 343.855469c-13.234375 0-24-10.765625-24-24 0-11.398438 14.160156-25.695313 18.503906-29.808594 3.078125-2.917969 7.917969-2.917969 11 0 4.335938 4.113281 18.496094 18.410156 18.496094 29.808594 0 13.242187-10.769531 24-24 24zm.007812-36.414063c-4.472656 5.160156-7.90625 10.335938-8.007812 12.429688 0 4.402344 3.582031 7.984375 8 7.984375 4.414062 0 8-3.582031 8-8-.105469-2.085938-3.539062-7.269531-7.992188-12.414063zm0 0"/><path d="m72.4375 383.808594c-4.425781 0-8-3.578125-8-8v-108.777344c0-4.414062 3.574219-8 8-8 4.421875 0 8 3.585938 8 8v108.785156c0 4.414063-3.578125 7.992188-8 7.992188zm0 0"/><path d="m72.4375 423.808594c-13.234375 0-24-10.769532-24-24 0-11.382813 14.160156-25.6875 18.496094-29.808594 3.09375-2.921875 7.917968-2.921875 11.015625 0 4.328125 4.121094 18.488281 18.433594 18.488281 29.808594 0 13.238281-10.769531 24-24 24zm.007812-36.402344c-4.464843 5.144531-7.90625 10.335938-8.007812 12.417969 0 4.398437 3.582031 7.984375 8 7.984375 4.414062 0 8-3.585938 8-8-.105469-2.082032-3.539062-7.265625-7.992188-12.402344zm0 0"/><path d="m192.453125 191.816406c-4.425781 0-8-3.585937-8-8v-7.359375c0-4.417969 3.574219-8 8-8 4.421875 0 8 3.582031 8 8v7.359375c0 4.414063-3.578125 8-8 8zm0 0"/><path d="m48.4375 191.816406c-4.425781 0-8-3.585937-8-8v-7.328125c0-4.417969 3.574219-8 8-8 4.421875 0 8 3.582031 8 8v7.328125c0 4.414063-3.578125 8-8 8zm0 0"/><path d="m120.46875 79.878906c-13.25 0-24.03125-10.773437-24.03125-24.015625 0-13.246093 10.78125-24.03125 24.03125-24.03125 13.238281 0 24.015625 10.785157 24.015625 24.03125 0 13.242188-10.777344 24.015625-24.015625 24.015625zm0-32.046875c-4.433594 0-8.03125 3.601563-8.03125 8.03125 0 4.417969 3.597656 8.015625 8.03125 8.015625 4.421875 0 8.015625-3.597656 8.015625-8.015625 0-4.429687-3.59375-8.03125-8.015625-8.03125zm0 0"/><path d="m120.46875 47.832031c-4.425781 0-8-3.585937-8-8v-31.832031c0-4.414062 3.574219-8 8-8 4.421875 0 8 3.585938 8 8v31.832031c0 4.414063-3.578125 8-8 8zm0 0"/><path d="m136.484375 16h-32.046875c-4.425781 0-8-3.585938-8-8s3.574219-8 8-8h32.046875c4.421875 0 8 3.585938 8 8s-3.578125 8-8 8zm0 0"/><path d="m376.4375 287.871094c-57.363281 0-104.035156-46.679688-104.035156-104.054688 0-4.417968 3.578125-8 8-8 4.425781 0 8 3.582032 8 8 0 48.550782 39.496094 88.054688 88.035156 88.054688 48.542969 0 88.046875-39.503906 88.046875-88.054688 0-4.417968 3.574219-8 8-8 4.421875 0 8 3.582032 8 8 0 57.375-46.671875 104.054688-104.046875 104.054688zm0 0"/><path d="m376.4375 263.847656c-44.113281 0-80-35.902344-80-80.03125 0-4.417968 3.574219-8 8-8 4.421875 0 8 3.582032 8 8 0 35.3125 28.710938 64.03125 64 64.03125 35.292969 0 64.015625-28.71875 64.015625-64.03125 0-4.417968 3.574219-8 8-8 4.421875 0 8 3.582032 8 8 0 44.128906-35.898437 80.03125-80.015625 80.03125zm0 0"/><path d="m264.515625 191.816406c-4.421875 0-8-3.585937-8-8 0-4.417968 3.578125-8 8-8 57.3125 0 103.9375-46.625 103.9375-103.9375 0-4.414062 3.574219-8 8-8 4.421875 0 8 3.585938 8 8 0 66.128906-53.808594 119.9375-119.9375 119.9375zm0 0"/><path d="m488.421875 191.808594c-66.136719 0-119.9375-53.808594-119.9375-119.9375 0-4.414063 3.574219-8 8-8 4.421875 0 8 3.585937 8 8 0 57.3125 46.625 103.9375 103.9375 103.9375 4.421875 0 8 3.582031 8 8 0 4.414062-3.578125 8-8 8zm0 0"/><path d="m376.453125 223.847656c-17.648437 0-32-14.351562-32-32 0-16.335937 22.550781-34.777344 27.078125-38.304687 2.890625-2.253907 6.953125-2.253907 9.839844 0 4.519531 3.527343 27.082031 21.976562 27.082031 38.304687 0 17.640625-14.351563 32-32 32zm0-53.550781c-8.410156 7.558594-16 16.886719-16 21.550781 0 8.824219 7.175781 16 16 16s16-7.175781 16-16c0-4.664062-7.59375-13.992187-16-21.550781zm0 0"/><path d="m264.515625 191.792969c-4.421875 0-8-3.585938-8-8 0-35.273438 28.695313-63.96875 63.96875-63.96875 4.421875 0 8 3.582031 8 8 0 4.414062-3.578125 8-8 8-26.457031 0-47.96875 21.519531-47.96875 47.96875 0 4.414062-3.574219 8-8 8zm0 0"/><path d="m488.402344 191.792969c-4.421875 0-8-3.585938-8-8 0-26.441407-21.503906-47.953125-47.949219-47.953125-4.425781 0-8-3.582032-8-8 0-4.414063 3.574219-8 8-8 35.261719 0 63.949219 28.6875 63.949219 63.953125 0 4.414062-3.574219 8-8 8zm0 0"/><path d="m361.484375 135.824219h-41c-4.425781 0-8-3.585938-8-8 0-4.417969 3.574219-8 8-8h41c4.421875 0 8 3.582031 8 8 0 4.414062-3.578125 8-8 8zm0 0"/><path d="m432.453125 135.839844h-40c-4.425781 0-8-3.582032-8-8 0-4.414063 3.574219-8 8-8h40c4.421875 0 8 3.585937 8 8 0 4.417968-3.578125 8-8 8zm0 0"/><path d="m280.421875 191.792969c-4.425781 0-8-3.585938-8-8v-1.097657c0-4.414062 3.574219-8 8-8 4.421875 0 8 3.585938 8 8v1.097657c0 4.414062-3.578125 8-8 8zm0 0"/><path d="m472.4375 303.855469c-4.425781 0-8-3.574219-8-8v-113.183594c0-4.414063 3.574219-8 8-8 4.421875 0 8 3.585937 8 8v113.183594c0 4.425781-3.578125 8-8 8zm0 0"/><path d="m472.4375 343.855469c-13.234375 0-24-10.765625-24-24 0-11.398438 14.160156-25.695313 18.503906-29.808594 3.078125-2.917969 7.917969-2.917969 11 0 4.335938 4.113281 18.496094 18.410156 18.496094 29.808594 0 13.242187-10.769531 24-24 24zm.007812-36.414063c-4.472656 5.160156-7.90625 10.335938-8.007812 12.429688 0 4.402344 3.582031 7.984375 8 7.984375 4.414062 0 8-3.582031 8-8-.105469-2.085938-3.539062-7.269531-7.992188-12.414063zm0 0"/><path d="m376.4375 471.871094c-4.425781 0-8-3.574219-8-8v-184c0-4.421875 3.574219-8 8-8 4.421875 0 8 3.578125 8 8v184c0 4.425781-3.578125 8-8 8zm0 0"/><path d="m376.4375 511.871094c-13.234375 0-24-10.765625-24-24 0-11.398438 14.160156-25.695313 18.503906-29.808594 3.078125-2.917969 7.917969-2.917969 11 0 4.335938 4.113281 18.496094 18.410156 18.496094 29.808594 0 13.234375-10.769531 24-24 24zm.007812-36.414063c-4.472656 5.160157-7.90625 10.335938-8.007812 12.429688 0 4.402343 3.582031 7.984375 8 7.984375 4.414062 0 8-3.582032 8-8-.105469-2.09375-3.539062-7.269532-7.992188-12.414063zm0 0"/><path d="m424.4375 383.808594c-4.425781 0-8-3.578125-8-8v-108.777344c0-4.414062 3.574219-8 8-8 4.421875 0 8 3.585938 8 8v108.785156c0 4.414063-3.578125 7.992188-8 7.992188zm0 0"/><path d="m424.4375 423.808594c-13.234375 0-24-10.769532-24-24 0-11.382813 14.160156-25.6875 18.496094-29.808594 3.09375-2.921875 7.917968-2.921875 11.015625 0 4.328125 4.121094 18.488281 18.433594 18.488281 29.808594 0 13.238281-10.769531 24-24 24zm.007812-36.402344c-4.464843 5.152344-7.90625 10.335938-8.007812 12.425781 0 4.398438 3.582031 7.984375 8 7.984375 4.414062 0 8-3.585937 8-8-.105469-2.089844-3.539062-7.273437-7.992188-12.410156zm0 0"/><path d="m280.4375 303.855469c-4.425781 0-8-3.574219-8-8v-113.183594c0-4.414063 3.574219-8 8-8 4.421875 0 8 3.585937 8 8v113.183594c0 4.425781-3.578125 8-8 8zm0 0"/><path d="m280.4375 343.855469c-13.234375 0-24-10.765625-24-24 0-11.398438 14.160156-25.695313 18.503906-29.808594 3.078125-2.917969 7.917969-2.917969 11 0 4.335938 4.113281 18.496094 18.410156 18.496094 29.808594 0 13.242187-10.769531 24-24 24zm.007812-36.414063c-4.472656 5.160156-7.90625 10.335938-8.007812 12.429688 0 4.402344 3.582031 7.984375 8 7.984375 4.414062 0 8-3.582031 8-8-.105469-2.085938-3.539062-7.269531-7.992188-12.414063zm0 0"/><path d="m328.4375 383.808594c-4.425781 0-8-3.578125-8-8v-108.777344c0-4.414062 3.574219-8 8-8 4.421875 0 8 3.585938 8 8v108.785156c0 4.414063-3.578125 7.992188-8 7.992188zm0 0"/><path d="m328.4375 423.808594c-13.234375 0-24-10.769532-24-24 0-11.382813 14.160156-25.6875 18.496094-29.808594 3.09375-2.921875 7.917968-2.921875 11.015625 0 4.328125 4.121094 18.488281 18.433594 18.488281 29.808594 0 13.238281-10.769531 24-24 24zm.007812-36.402344c-4.464843 5.152344-7.90625 10.335938-8.007812 12.425781 0 4.398438 3.582031 7.984375 8 7.984375 4.414062 0 8-3.585937 8-8-.105469-2.089844-3.539062-7.273437-7.992188-12.410156zm0 0"/><path d="m448.453125 191.816406c-4.425781 0-8-3.585937-8-8v-7.359375c0-4.417969 3.574219-8 8-8 4.421875 0 8 3.582031 8 8v7.359375c0 4.414063-3.578125 8-8 8zm0 0"/><path d="m304.4375 191.816406c-4.425781 0-8-3.585937-8-8v-7.328125c0-4.417969 3.574219-8 8-8 4.421875 0 8 3.582031 8 8v7.328125c0 4.414063-3.578125 8-8 8zm0 0"/><path d="m376.46875 79.878906c-13.25 0-24.03125-10.773437-24.03125-24.015625 0-13.246093 10.78125-24.03125 24.03125-24.03125 13.238281 0 24.015625 10.785157 24.015625 24.03125 0 13.242188-10.777344 24.015625-24.015625 24.015625zm0-32.046875c-4.433594 0-8.03125 3.601563-8.03125 8.03125 0 4.417969 3.597656 8.015625 8.03125 8.015625 4.421875 0 8.015625-3.597656 8.015625-8.015625 0-4.429687-3.59375-8.03125-8.015625-8.03125zm0 0"/><path d="m376.46875 47.832031c-4.425781 0-8-3.585937-8-8v-31.832031c0-4.414062 3.574219-8 8-8 4.421875 0 8 3.585938 8 8v31.832031c0 4.414063-3.578125 8-8 8zm0 0"/><path d="m392.484375 16h-32.046875c-4.425781 0-8-3.585938-8-8s3.574219-8 8-8h32.046875c4.421875 0 8 3.585938 8 8s-3.578125 8-8 8zm0 0"/></g></svg>