<svg height="512" viewBox="0 0 64 64" width="512" xmlns="http://www.w3.org/2000/svg"><g id="Bag-handbag-ladies_bag-2" data-name="Bag-handbag-ladies bag"><path d="m58.78 22h-53.56a1.994 1.994 0 0 0 -1.99 2.2l2.48 24.23a14 14 0 0 0 13.93 12.57h24.72a14 14 0 0 0 13.93-12.57l2.48-24.23a1.994 1.994 0 0 0 -1.99-2.2zm-42.78 13a4 4 0 1 1 4-4 4 4 0 0 1 -4 4zm32 0a4 4 0 1 1 4-4 4 4 0 0 1 -4 4z" fill="#ff5023"/><g fill="#3e3d42"><path d="m49 22h2v6h-2z"/><circle cx="49" cy="31" r="4"/><path d="m17 22h2v6h-2z"/><circle cx="17" cy="31" r="4"/></g><path d="m44.73 8.27a18 18 0 0 0 -30.73 12.73v8h4v-8a14 14 0 0 1 28 0v1h4v-1a17.983 17.983 0 0 0 -5.27-12.73z" fill="#a78966"/><path d="m46 22h4v7h-4z" fill="#a78966"/><circle cx="16" cy="31" fill="#d8d7da" r="4"/><path d="m14.293 32.121a2 2 0 0 1 2.828-2.828z" fill="#fff"/><circle cx="48" cy="31" fill="#d8d7da" r="4"/><path d="m46.293 32.121a2 2 0 0 1 2.828-2.828z" fill="#fff"/><rect fill="#ff7754" height="11" rx="2" width="4" x="9" y="39"/><path d="m61.01 21.99a3.008 3.008 0 0 0 -2.23-.99h-7.78a19 19 0 0 0 -38 0h-7.78a3.008 3.008 0 0 0 -2.23.99 2.957 2.957 0 0 0 -.75 2.31l2.48 24.23a14.952 14.952 0 0 0 14.92 13.47h24.72a14.952 14.952 0 0 0 14.92-13.47l2.48-24.23a2.957 2.957 0 0 0 -.75-2.31zm-46.01-.99a17 17 0 0 1 34 0v5.1a5.05 5.05 0 0 0 -2 0v-5.1a15 15 0 0 0 -30 0v5.1a5.05 5.05 0 0 0 -2 0zm36 10a3 3 0 1 1 -3-3 3.009 3.009 0 0 1 3 3zm-6-10h-26a13 13 0 0 1 26 0zm-29 7a3 3 0 1 1 -3 3 3.009 3.009 0 0 1 3-3zm41.3 20.33a12.979 12.979 0 0 1 -12.94 11.67h-24.72a12.979 12.979 0 0 1 -12.94-11.67l-2.48-24.23a1.011 1.011 0 0 1 1-1.1h7.78v4h.03a5 5 0 1 0 5.94 0h.03v-4h26v4h.03a5 5 0 1 0 5.94 0h.03v-4h7.78a1.011 1.011 0 0 1 1 1.1z"/></g></svg>