<svg viewBox="1 -52 511.99905 511" xmlns="http://www.w3.org/2000/svg"><path d="m113.410156 204.464844-7.171875 11.523437c-10.660156 21.800781-16.269531 45.839844-16.269531 70.304688v111.566406h-40.003906c-.09375-131.929687.207031-124.003906-.269532-132.507813-1.773437-31.882812-11.503906-62.617187-26.921874-90.277343-5.082032-9.101563-8.574219-18.902344-10.613282-29.011719 36.644532 14.640625 70.695313 34.382812 101.25 58.402344zm0 0" fill="#424d63"/><path d="m113.410156 204.464844c-30.554687-24.019532-64.605468-43.761719-101.25-58.402344-2.640625-13.082031-2.847656-26.695312-.910156-40.035156l.199219-1.410156c5.554687-37.039063 25.757812-70.589844 55.277343-94.117188 55.222657 44.675781 103.925782 96.847656 144.699219 155.011719l66.757813 95.25c11.777344 22.070312 41.042968 37.089843 67.804687 37.089843 18.039063 0 40.480469-6.820312 52.894531-18.019531 58.894532 8.660157 103.117188 63.953125 103.117188 88.027344 0 27.609375-58.207031 30-130.011719 30h-81.785156c-24.074219 0-45.433594-14.570313-55.125-36.613281-27.28125-62.023438-69.34375-115.667969-121.667969-156.78125zm0 0" fill="#e87288"/><path d="m442.246094 367.859375c5.519531 0 10-4.480469 10-10 0-5.523437-4.480469-10.003906-10-10.003906-5.523438 0-10.003906 4.480469-10.003906 10.003906 0 5.519531 4.480468 10 10.003906 10zm0 0"/><path d="m2.386719 148.179688c2.308593 11.359374 6.226562 22.046874 11.648437 31.765624 17.648438 31.652344 25.929688 64.613282 25.929688 94.476563v123.441406c0 5.523438 4.476562 10 10 10h40.003906c5.523438 0 10-4.476562 10-10v-111.570312c0-22.542969 5.195312-45.167969 15.035156-65.460938l.914063-1.472656c47.351562 39.414063 85.257812 89.652344 110.003906 145.914063 11.375 25.871093 36.609375 42.589843 64.28125 42.589843h81.785156c39.488281 0 70.523438-.816406 93.628907-4.792969 11.472656-1.976562 46.382812-7.980468 46.382812-35.210937 0-15.398437-12.757812-37.757813-32.503906-56.960937-13.257813-12.902344-41.179688-35.375-79.160156-40.960938-2.953126-.433594-5.941407.472656-8.15625 2.46875-9.914063 8.949219-29.34375 15.445312-46.191407 15.445312-23.949219 0-49.308593-13.671874-58.984375-31.800781-.191406-.355469-.402344-.699219-.632812-1.03125l-66.757813-95.246093c-41.316406-58.941407-90.640625-111.78125-146.597656-157.046876-3.648437-2.953124-8.855469-2.972656-12.523437-.046874-15.609376 12.441406-28.632813 27.324218-38.710938 44.234374-19.4375 32.628907-25.695312 69.835938-19.457031 100.964844.019531.101563.039062.203125.0625.300782zm77.578125 138.113281v101.566406h-20v-113.4375c0-3.007813-.097656-6.25-.285156-9.625-3.042969-54.820313-26.867188-91.015625-31.34375-100.871094 25.359374 11.761719 49.414062 26.148438 71.792968 42.949219-10.796875 17.476562-20.164062 48.136719-20.164062 79.417969zm-40.75-229.140625c7.484375-12.558594 16.832031-23.851563 27.851562-33.65625 51.886719 42.917968 97.75 92.59375 136.421875 147.757812l66.421875 94.773438c13.296875 24.273437 45.273438 41.828125 76.328125 41.828125 19.695313 0 41.757813-7.011719 55.695313-17.410157 30.273437 5.761719 52.851562 24.070313 63.867187 34.789063 17.363281 16.890625 26.445313 34.226563 26.445313 42.625 0 8.574219-16.1875 13.160156-29.773438 15.5-21.707031 3.734375-51.773437 4.5-90.234375 4.5h-81.785156c-19.742187 0-37.789063-12.023437-45.972656-30.636719-43.304688-98.457031-123.339844-176.894531-223.171875-218.335937-3.628906-24.609375 1.839844-54.761719 17.90625-81.734375zm0 0"/><path d="m290.234375 367.859375h112.007813c5.523437 0 10-4.480469 10-10 0-5.523437-4.476563-10.003906-10-10.003906h-112.007813c-5.523437 0-10.003906 4.480469-10.003906 10.003906 0 5.519531 4.480469 10 10.003906 10zm0 0"/></svg>