<?xml version="1.0"?>
<svg xmlns="http://www.w3.org/2000/svg" height="512px" viewBox="1 -27 511.99998 511" width="512px" class="hovered-paths"><g><path d="m207.03125 441.242188v-114.265626c0-9.015624 7.304688-16.324218 16.320312-16.324218h65.296876c9.015624 0 16.324218 7.308594 16.324218 16.324218v114.265626h97.9375c9.015625 0 16.324219-7.308594 16.324219-16.324219v-244.851563h-326.46875v244.851563c0 9.015625 7.308594 16.324219 16.324219 16.324219zm0 0" fill="#bddbff" data-original="#BDDBFF" class="" style="fill:#BDDBFF" data-old_color="#bddbff"/><path d="m512 233.429688-244.851562-228.527344c-6.273438-5.871094-16.023438-5.871094-22.296876 0l-244.851562 228.527344 22.296875 23.863281 54.144531-50.535157v218.160157c0 18.03125 14.617188 32.648437 32.648438 32.648437h293.820312c18.03125 0 32.648438-14.617187 32.648438-32.648437v-218.164063l54.144531 50.605469zm-288.648438 191.488281v-97.941407h65.296876v97.941407zm179.558594 0h-81.617187v-97.941407c0-18.027343-14.617188-32.644531-32.644531-32.644531h-65.296876c-18.027343 0-32.644531 14.617188-32.644531 32.644531v97.941407h-81.617187v-228.527344h293.820312zm-280.386718-261.175781 133.476562-124.578126 133.476562 124.578126zm0 0" fill="#3d9ae2" data-original="#3D9AE2" class="hovered-path active-path" style="fill:#100DD1" data-old_color="#3d9ae2"/></g> </svg>
