<svg id="Capa_1" enable-background="new 0 0 512 512" height="512" viewBox="0 0 512 512" width="512" xmlns="http://www.w3.org/2000/svg"><g><g><path d="m152.866 451.89h-94.406v-239.957h94.406z" fill="#e2e1f4"/></g><g><path d="m303.203 451.89h-94.405v-239.957h94.405z" fill="#e2e1f4"/></g><g><path d="m303.203 451.89h-47.203v-239.957h47.203z" fill="#c2bce0"/></g><g><path d="m453.54 451.89h-94.405v-239.957h94.405z" fill="#c2bce0"/></g><path d="m22.97 166.933h466.06v75h-466.06z" fill="#a299d1"/><path d="m256 166.933h233.03v75h-233.03z" fill="#8379c1"/><g><g><g><path d="m512 179.313h-512v-62.714l256-116.489 256 116.488z" fill="#8379c1"/></g><g><path d="m512 179.313h-256v-179.203l256 116.488z" fill="#6354b1"/></g><g><path d="m512 511.89h-512v-77.872h512z" fill="#8379c1"/></g><g><path d="m512 511.89h-256v-77.872h256z" fill="#6354b1"/></g></g><g><path d="m256 137.805c-23.02 0-41.747-18.728-41.747-41.747s18.727-41.747 41.747-41.747 41.747 18.728 41.747 41.747-18.727 41.747-41.747 41.747z" fill="#e2e1f4"/></g><g><path d="m256 137.805c0-32.914 0-59.796 0-83.494 23.02 0 41.747 18.728 41.747 41.747s-18.727 41.747-41.747 41.747z" fill="#c2bce0"/></g></g></g></svg>