<svg height="512" viewBox="0 0 50 60" width="512" xmlns="http://www.w3.org/2000/svg"><g id="Page-1" fill="none" fill-rule="evenodd"><g id="019---Folded-Clothing" fill-rule="nonzero"><g id="Color" transform="translate(1 1)"><g fill="#f5f5f5"><circle id="Oval" cx="31" cy="23" r="2"/><circle id="Oval" cx="31" cy="32" r="2"/><circle id="Oval" cx="31" cy="41" r="2"/></g><path id="Shape" d="m48 8v37c0 1.6568542-1.3431458 3-3 3h-20v-32.49c1.3038217-.3516933 2.6496435-.5232856 4-.51 5.08 0 7.26 2.1 9.59 2.79.3221874.092926.6695039.0181859.9249482-.1990424.2554444-.2172282.3850107-.5480263.3450518-.8809576l-1.35-12.17c5.67.69 9.49 1.98 9.49 3.46z" fill="#02a9f4"/><path id="Shape" d="m38.51 4.54.05.46c3.95.73 6.44 1.8 6.44 3v37c0 1.6568542-1.3431458 3-3 3h3c1.6568542 0 3-1.3431458 3-3v-37c0-1.48-3.82-2.77-9.49-3.46z" fill="#0377bc"/><path id="Shape" d="m25 15.51v32.49h-12c-1.6568542 0-3-1.3431458-3-3v-37c0-1.48 3.82-2.77 9.49-3.46l-1.35 12.17c-.0399589.3329313.0896074.6637294.3450518.8809576.2554443.2172283.6027608.2919684.9249482.1990424 1.59-.47 3.14-1.62 5.59-2.28z" fill="#02a9f4"/><path id="Shape" d="m16.44 5-1.3 11.71c-.0399589.3329313.0896074.6637294.3450518.8809576.2554443.2172283.6027608.2919684.9249482.1990424.6064213-.192669 1.1952373-.4368938 1.76-.73-.0153018-.1161649-.0153018-.2338351 0-.35l1.32-12.17c-1.09.13-2.11.29-3.05.46z" fill="#0377bc"/><path id="Shape" d="m22 16.67v31.33h3v-32.49c-1.033328.2942348-2.0375252.6825243-3 1.16z" fill="#0377bc"/><path id="Shape" d="m43 48v2c0 1.6568542-1.3431458 3-3 3h-32c-1.65685425 0-3-1.3431458-3-3v-37c0-1 1.9-2 5-2.7v34.7c0 .7956495.3160705 1.5587112.8786797 2.1213203.5626091.5626092 1.3256708.8786797 2.1213203.8786797z" fill="#e91e63"/><path id="Shape" d="m7 11.22v33.78c0 1.6568542 1.34314575 3 3 3h3c-1.6568542 0-3-1.3431458-3-3v-34.7c-1.02487457.218752-2.02868783.526588-3 .92z" fill="#ad1457"/><path id="Shape" d="m40 48v2c0 1.6568542-1.3431458 3-3 3h3c1.6568542 0 3-1.3431458 3-3v-2z" fill="#ad1457"/><path id="Shape" d="m38 53v2c0 1.6568542-1.3431458 3-3 3h-32c-1.65685425 0-3-1.3431458-3-3v-37c0-1 1.9-2 5-2.7v34.7c0 1.6568542 1.34314575 3 3 3z" fill="#9d27b0"/><path id="Shape" d="m35 53v2c0 1.6568542-1.3431458 3-3 3h3c1.6568542 0 3-1.3431458 3-3v-2z" fill="#6a1b9a"/><path id="Shape" d="m2 16.22v33.78c0 1.6568542 1.34314575 3 3 3h3c-1.65685425 0-3-1.3431458-3-3v-34.7c-1.02487457.218752-2.02868783.526588-3 .92z" fill="#6a1b9a"/><path id="Shape" d="m39.86 16.71c.0399589.3329313-.0896074.6637294-.3450518.8809576-.2554443.2172283-.6027608.2919684-.9249482.1990424-2.33-.69-4.51-2.79-9.59-2.79 7.08 0 8.74-11.49 9-14.36.0382887.07840346.0620076.16311359.07.25l.41 3.65z" fill="#00bcd4"/><path id="Shape" d="m38 .64c-.26 2.87-1.92 14.36-9 14.36-5.19 0-7.46-6.17-8.42-10.59-.2587553-1.12456582-.4524104-2.26312447-.58-3.41v-.44c.1682534-.34339101.5176049-.56076527.9-.56h16.2c.4012767.01331542.7556818.26533681.9.64z" fill="#3f51b5"/><path id="Shape" d="m29 15c-1.3503565-.0132856-2.6961783.1583067-4 .51-2.45.66-4 1.81-5.59 2.28-.3221874.092926-.6695039.0181859-.9249482-.1990424-.2554444-.2172282-.3850107-.5480263-.3450518-.8809576l1.35-12.17.41-3.65c.0119976-.11536783.0459401-.22737832.1-.33v.44c.1256732 1.16365999.3193376 2.31896826.58 3.46.96 4.37 3.23 10.54 8.42 10.54z" fill="#00bcd4"/><circle id="Oval" cx="31" cy="23" fill="#f5f5f5" r="2"/><circle id="Oval" cx="31" cy="32" fill="#f5f5f5" r="2"/><circle id="Oval" cx="31" cy="41" fill="#f5f5f5" r="2"/></g><g id="Outline" fill="#000"><path id="Shape" d="m36 60c2.209139 0 4-1.790861 4-4v-1h1c2.209139 0 4-1.790861 4-4v-1h1c2.209139 0 4-1.790861 4-4v-37c0-2-3.23-3.5-9.59-4.35l-.32-2.87c-.1122266-1.0140558-.9697536-1.78108998-1.99-1.78h-16.2c-.7775239.00196371-1.4834414.45437489-1.81 1.16-.0913375.18851224-.1488773.39159357-.17.6l-.32 2.87c-6.37.87-9.6 2.37-9.6 4.37v1.52c-3.35.87-5 2-5 3.48v1.52c-3.35.87-5 2-5 3.48v37c0 2.209139 1.790861 4 4 4zm12-51v37c0 1.1045695-.8954305 2-2 2h-19v-30.7c.9869892-.2031192 1.9923335-.3036536 3-.3 2.4473741-.0066011 4.8562167.6093744 7 1.79.7311991.3817879 1.49404.6996383 2.28.95.6353093.1836821 1.3203434.0414346 1.83-.38.5176666-.4298761.7844709-1.0912502.71-1.76l-1.18-10.9c5.18.75 7.2 1.87 7.36 2.3zm-8.14 8.82 1-.11-1 .12c-.6857851-.2321064-1.3541466-.5128182-2-.84-1.1636708-.5971129-2.3827666-1.0793926-3.64-1.44 2.26-1.73 3.66-4.73 4.51-7.54zm-9.86-2.82c-4.62 0-6.65-6.14-7.44-9.81-.249656-1.05130904-.4366519-2.1165178-.56-3.19h16c-.37 3-2 13-8 13zm-8.78-7c1.07 3.54 2.58 6.07 4.5 7.51-1.2527475.376363-2.4652913.8754487-3.62 1.49-.6446182.3270622-1.3132202.604532-2 .83zm-1.86-1.3-1.21 10.9c-.0658858.5690089.1153659 1.1389575.4978159 1.5653893s.929386.6684125 1.5021841.6646107c.190291.0002976.3793849-.0300925.56-.09.7893791-.2498214 1.5555873-.5676807 2.29-.95.63-.31 1.29-.62 2-.91v30.12h-11c-1.1045695 0-2-.8954305-2-2v-37c.16-.43 2.18-1.55 7.36-2.3zm-9.36 5.89v33.41c0 2.209139 1.790861 4 4 4h29v1c0 1.1045695-.8954305 2-2 2h-32c-1.1045695 0-2-.8954305-2-2v-37s.32-.65 3-1.41zm-8 43.41v-37s.32-.68 3-1.44v33.44c0 2.209139 1.790861 4 4 4h29v1c0 1.1045695-.8954305 2-2 2h-32c-1.1045695 0-2-.8954305-2-2z"/><path id="Shape" d="m32 21c-1.6568542 0-3 1.3431458-3 3s1.3431458 3 3 3 3-1.3431458 3-3-1.3431458-3-3-3zm0 4c-.5522847 0-1-.4477153-1-1s.4477153-1 1-1 1 .4477153 1 1-.4477153 1-1 1z"/><path id="Shape" d="m32 30c-1.6568542 0-3 1.3431458-3 3s1.3431458 3 3 3 3-1.3431458 3-3-1.3431458-3-3-3zm0 4c-.5522847 0-1-.4477153-1-1s.4477153-1 1-1 1 .4477153 1 1-.4477153 1-1 1z"/><path id="Shape" d="m32 39c-1.6568542 0-3 1.3431458-3 3s1.3431458 3 3 3 3-1.3431458 3-3-1.3431458-3-3-3zm0 4c-.5522847 0-1-.4477153-1-1s.4477153-1 1-1 1 .4477153 1 1-.4477153 1-1 1z"/></g></g></g></svg>