<?xml version="1.0"?>
<svg xmlns="http://www.w3.org/2000/svg" height="512px" viewBox="0 -13 456.65885 456" width="512px" class=""><g><path d="m446.753906 103.984375-47 155.800781c-5.085937 16.890625-20.660156 28.441406-38.300781 28.398438h-210c-19.394531.003906-36-13.902344-39.398437-33l-26.800782-151.101563h361.5zm0 0" fill="#00efd1" data-original="#00EFD1" class="" style="fill:#FFFFFF" data-old_color="#00efd1"/><path d="m404.652344 376.683594c0 24.523437-19.875 44.398437-44.398438 44.398437-24.519531 0-44.398437-19.875-44.398437-44.398437 0-24.519532 19.878906-44.398438 44.398437-44.398438 24.523438 0 44.398438 19.878906 44.398438 44.398438zm0 0" fill="#00acea" data-original="#00ACEA"/><path d="m194.652344 376.683594c0 24.523437-19.875 44.398437-44.398438 44.398437-24.519531 0-44.398437-19.875-44.398437-44.398437 0-24.519532 19.878906-44.398438 44.398437-44.398438 24.523438 0 44.398438 19.878906 44.398438 44.398438zm0 0" fill="#00acea" data-original="#00ACEA"/><g fill="#083863"><path d="m235.652344 224.785156c1.871094 1.90625 4.429687 2.988282 7.101562 3 2.652344-.019531 5.195313-1.058594 7.101563-2.902344l48.097656-48.097656c3.894531-3.894531 3.894531-10.207031 0-14.101562-3.890625-3.894532-10.207031-3.894532-14.097656 0l-41 41-19.902344-20.101563c-3.863281-3.917969-10.175781-3.964843-14.097656-.097656s-3.96875 10.179687-.101563 14.097656zm0 0" data-original="#083863" class="active-path" data-old_color="#083863" style="fill:#100DD1"/><path d="m150.253906 322.285156c-30.042968 0-54.398437 24.355469-54.398437 54.398438 0 30.042968 24.355469 54.398437 54.398437 54.398437 30.042969 0 54.398438-24.355469 54.398438-54.398437-.03125-30.03125-24.367188-54.367188-54.398438-54.398438zm0 88.796875c-19 0-34.398437-15.398437-34.398437-34.398437s15.398437-34.398438 34.398437-34.398438 34.398438 15.398438 34.398438 34.398438-15.398438 34.398437-34.398438 34.398437zm0 0" data-original="#083863" class="active-path" data-old_color="#083863" style="fill:#100DD1"/><path d="m446.753906 93.984375h-353.101562l-7.199219-40.300781c-4.425781-24.777344-23.820313-44.171875-48.597656-48.601563l-26.101563-4.597656c-5.441406-.96875-10.632812 2.660156-11.601562 8.097656-.964844 5.441407 2.660156 10.636719 8.101562 11.601563l26.101563 4.601562c16.527343 2.929688 29.46875 15.867188 32.398437 32.398438l35.398438 199.699218c4.183594 23.898438 24.941406 41.324219 49.203125 41.300782h210c22.0625.066406 41.542969-14.371094 47.898437-35.5l47-155.800782c.871094-3.039062.320313-6.3125-1.5-8.898437-1.859375-2.554687-4.839844-4.046875-8-4zm-56.601562 162.800781c-3.769532 12.6875-15.460938 21.363282-28.699219 21.296875h-210.097656c-14.570313.042969-27.039063-10.441406-29.5-24.796875l-24.703125-139.402344h336.101562zm0 0" data-original="#083863" class="active-path" data-old_color="#083863" style="fill:#100DD1"/><path d="m360.253906 322.285156c-30.042968 0-54.398437 24.355469-54.398437 54.398438 0 30.042968 24.355469 54.398437 54.398437 54.398437 30.042969 0 54.398438-24.355469 54.398438-54.398437-.03125-30.03125-24.367188-54.367188-54.398438-54.398438zm0 88.796875c-19 0-34.398437-15.398437-34.398437-34.398437s15.398437-34.398438 34.398437-34.398438 34.398438 15.398438 34.398438 34.398438-15.398438 34.398437-34.398438 34.398437zm0 0" data-original="#083863" class="active-path" data-old_color="#083863" style="fill:#100DD1"/></g></g> </svg>
