<svg id="Layer_1" height="512" viewBox="0 0 128 128" width="512" xmlns="http://www.w3.org/2000/svg" data-name="Layer 1"><path d="m60.667 32.236h6.667v15.597h-6.667z" fill="#505c86"/><path d="m114.565 90.049h-82.549a3.186 3.186 0 0 1 -2.608-1.357l-18.58-26.5a3.185 3.185 0 1 1 5.216-3.657l17.629 25.144h80.892a3.185 3.185 0 1 1 0 6.37z" fill="#ff9d00"/><path d="m14.255 90.049h99.49v6.61h-99.49z" fill="#ffce12"/><path d="m14.583 117.75h-4.333l10.25-21.09h6.333z" fill="#ff9d00"/><path d="m113.417 117.75h4.333l-10.25-21.09h-6.333z" fill="#ff9d00"/><path d="m39.081 39.417a13.084 13.084 0 0 1 12.459 9.1 13.08 13.08 0 0 1 24.918 0 13.077 13.077 0 0 1 25.45 2.483h.092a38 38 0 0 0 -76 0h.092a13.079 13.079 0 0 1 12.989-11.583z" fill="#ff3245"/><path d="m64.064 13.108v-.108c-.022.018-.042.036-.063.054-.022-.018-.041-.036-.063-.054v.107c-16.511 13.304-12.338 35.409-12.338 35.409a12.994 12.994 0 0 1 24.791 0s4.182-22.105-12.327-35.408z" fill="#cef4ff"/><path d="m46.02 23.417a1.75 1.75 0 0 0 -2.441-.405q-.315.225-.622.46a1.75 1.75 0 1 0 2.131 2.776q.26-.2.527-.39a1.75 1.75 0 0 0 .405-2.441z" fill="#fff"/><path d="m39.113 27.055a27.6 27.6 0 0 0 -4.113 5.883 1.75 1.75 0 1 0 3.149 1.526 24.037 24.037 0 0 1 3.572-5.072 1.75 1.75 0 1 0 -2.6-2.338z" fill="#fff"/><g fill="#242c43"><path d="m47.333 88.3a1.75 1.75 0 1 0 0 3.5h.834a1.75 1.75 0 0 0 0-3.5z"/><path d="m110.3 98.41h3.449a1.75 1.75 0 0 0 0-3.5h-97.749v-3.11h24.41a1.75 1.75 0 0 0 0-3.5h-8.4a1.436 1.436 0 0 1 -1.175-.611l-18.575-26.504a1.435 1.435 0 1 1 2.35-1.648l17.629 25.146a1.75 1.75 0 0 0 1.433.746h80.892a1.435 1.435 0 1 1 0 2.871h-60.981a1.75 1.75 0 1 0 0 3.5h60.981a4.935 4.935 0 1 0 0-9.871h-48.814v-28.429a1.75 1.75 0 0 0 -3.5 0v28.429h-27.667l-17.106-24.4a4.935 4.935 0 0 0 -8.082 5.667l17.605 25.104h-12.745a1.75 1.75 0 0 0 -1.75 1.75v6.61a1.75 1.75 0 0 0 1.75 1.75h3.445l-9.024 18.575a1.75 1.75 0 0 0 1.574 2.515h4.333a1.75 1.75 0 0 0 1.513-.871l3.452-5.944h42.7v5.065a1.75 1.75 0 0 0 3.5 0v-5.065h36.252a1.75 1.75 0 0 0 0-3.5h-36.25v-6.685a1.75 1.75 0 0 0 -3.5 0v6.685h-40.668l3.372-5.806a1.75 1.75 0 1 0 -3.026-1.758l-8.352 14.379h-.53l8.554-17.59h78.564l11.736 20.219a1.751 1.751 0 0 0 1.514.871h4.333a1.75 1.75 0 0 0 1.574-2.515zm4.124 17.59-10.216-17.59h2.2l8.55 17.59z"/><path d="m84.467 21.077c.23.158.46.318.687.481a1.75 1.75 0 1 0 2.045-2.84q-.372-.268-.751-.527a1.75 1.75 0 1 0 -1.98 2.886z"/><path d="m26.092 52.75a1.75 1.75 0 0 0 1.739-1.55 11.327 11.327 0 0 1 22.043-2.15 1.75 1.75 0 0 0 3.334 0 11.289 11.289 0 0 1 5.708-6.681v5.466a1.75 1.75 0 0 0 1.75 1.75h6.667a1.75 1.75 0 0 0 1.75-1.75v-5.468a11.291 11.291 0 0 1 5.709 6.681 1.75 1.75 0 0 0 3.334 0 11.328 11.328 0 0 1 22.044 2.152 1.842 1.842 0 0 0 1.83 1.55 1.75 1.75 0 0 0 1.75-1.75 39.9 39.9 0 0 0 -12.638-29.069 1.75 1.75 0 0 0 -2.389 2.559 36.38 36.38 0 0 1 10.285 17.135 14.844 14.844 0 0 0 -20.4.205c-.062-6.986-1.681-18-9.882-26.765a35.8 35.8 0 0 1 10.528 3.041 1.75 1.75 0 0 0 1.475-3.174 39.314 39.314 0 0 0 -14.979-3.632v-1.05a1.75 1.75 0 0 0 -3.5 0v1.044a39.8 39.8 0 0 0 -38 39.706 1.831 1.831 0 0 0 1.842 1.75zm39.491-6.667h-3.166v-4.8a10.823 10.823 0 0 1 3.167 0zm-6.272-31.03a36.165 36.165 0 0 0 -9.1 18.317 1.75 1.75 0 0 0 3.437.663 32.28 32.28 0 0 1 10.352-18.692c9.7 8.524 11.182 20.442 11.112 27.33a14.841 14.841 0 0 0 -23.57 1.771 14.843 14.843 0 0 0 -22.566-2.8 36.352 36.352 0 0 1 30.335-26.589z"/></g></svg>